<svg xmlns="http://www.w3.org/2000/svg" viewBox="0 0 79 79"><defs/><g id="Layer_2" data-name="Layer 2"><g id="Layer_1-2" data-name="Layer 1"><path fill="#ffece1" d="M70.5 36.52a32.93 32.93 0 0 1-33.1 33 33.32 33.32 0 0 1-10.4-1.7 8 8 0 0 0-4.8-3.4 7 7 0 0 0-2.9-.3 33.17 33.17 0 0 1-13.2-38.3c2.3-.5 3.9-1.9 3.8-3.3a2.79 2.79 0 0 0-1.4-2.1 33.06 33.06 0 0 1 58.7 1.7l-.2.2a5.55 5.55 0 0 0-.8 7.8 5.26 5.26 0 0 0 2.8 1.8c.3.1.5.1.8.2h.3a21.83 21.83 0 0 1 .4 4.4z"/><path fill="#6fbbc4" d="M70 36.52A32.5 32.5 0 0 1 37.5 69a32.09 32.09 0 0 1-10.2-1.7 7.5 7.5 0 0 0-4.7-3.3 6.72 6.72 0 0 0-2.8-.3 32.56 32.56 0 0 1-13-37.6c2.2-.5 3.8-1.8 3.7-3.3a2.47 2.47 0 0 0-1.4-2 32.55 32.55 0 0 1 57.8 1.7l-.2.2a5.41 5.41 0 0 0-.8 7.6 5.26 5.26 0 0 0 2.8 1.8c.3.1.5.1.8.2h.3c.1 1.42.2 2.82.2 4.22z"/><ellipse cx="51.9" cy="58.34" fill="#d7f0ee" rx="6" ry="4.6" transform="rotate(-30.83 51.893 58.348)"/><ellipse cx="52.23" cy="58.94" fill="#1b403d" rx="6" ry="4.4" transform="rotate(-30.83 52.235 58.95)"/><ellipse cx="52.12" cy="58.61" fill="#1c5955" rx="6" ry="4.4" transform="rotate(-30.83 52.115 58.604)"/><ellipse cx="51.59" cy="57.71" fill="#2a867f" rx="5.2" ry="3.4" transform="rotate(-30.83 51.603 57.702)"/><path fill="#5b99a1" d="M69.4 32.22a2.35 2.35 0 0 1-.8-.2 5.45 5.45 0 0 1-3.8-6.7 5.26 5.26 0 0 1 1.8-2.8 33.16 33.16 0 0 0-16.4-16 63 63 0 0 1 7.2 29.8 68.63 68.63 0 0 1-2.1 16.9 4.06 4.06 0 0 1 2.3 1.6c0 .1.1.1.1.2l.1.1.1.1.1.1c1.3 2.2.1 5.4-2.8 7a7.71 7.71 0 0 1-3.6 1.2c-.5.9-.8 1.7-1.3 2.5a32.15 32.15 0 0 0 19.1-33.8z"/><ellipse cx="23.71" cy="17.54" fill="#d7f0ee" rx="3.3" ry="2.5" transform="rotate(-32.21 23.715 17.54)"/><ellipse cx="23.5" cy="17.25" fill="#1b403d" rx="3.3" ry="2.4" transform="rotate(-32.21 23.498 17.253)"/><ellipse cx="23.57" cy="17.36" fill="#1c5955" rx="3.3" ry="2.4" transform="rotate(-32.21 23.576 17.37)"/><ellipse cx="23.71" cy="17.54" fill="#2a867f" rx="2.9" ry="1.9" transform="rotate(-31.94 23.712 17.541)"/><ellipse cx="14.1" cy="49.13" fill="#d7f0ee" rx="3.5" ry="7.2" transform="rotate(-37.86 14.095 49.12)"/><ellipse cx="13.72" cy="49.45" fill="#1b403d" rx="3.3" ry="7.2" transform="rotate(-37.86 13.722 49.449)"/><ellipse cx="13.89" cy="49.26" fill="#1c5955" rx="3.3" ry="7.2" transform="rotate(-37.86 13.885 49.26)"/><ellipse cx="14.55" cy="48.71" fill="#2a867f" rx="2.5" ry="6.3" transform="rotate(-37.86 14.547 48.705)"/><ellipse cx="24.95" cy="27.18" fill="#fff" rx="2.5" ry="2.61"/><ellipse cx="25.05" cy="27.5" fill="#1b403d" rx="2.5" ry="2.77"/><ellipse cx="25.05" cy="27.42" fill="#1c5955" rx="2.5" ry="2.61"/><ellipse cx="25.05" cy="27.26" fill="#2a867f" rx="2.5" ry="2.45"/><ellipse cx="24.95" cy="35.94" fill="#fff" rx="2.5" ry="2.61"/><ellipse cx="25.05" cy="36.26" fill="#1b403d" rx="2.5" ry="2.77"/><ellipse cx="25.05" cy="36.18" fill="#1c5955" rx="2.5" ry="2.61"/><ellipse cx="25.05" cy="36.02" fill="#2a867f" rx="2.5" ry="2.45"/><ellipse cx="24.95" cy="45.38" fill="#fff" rx="2.5" ry="2.61"/><ellipse cx="25.05" cy="45.7" fill="#1b403d" rx="2.5" ry="2.77"/><ellipse cx="25.05" cy="45.62" fill="#1c5955" rx="2.5" ry="2.61"/><ellipse cx="25.05" cy="45.46" fill="#2a867f" rx="2.5" ry="2.45"/><path fill="#fff" d="M32.5 24.22h16.8a3 3 0 0 1 3 3 3 3 0 0 1-3 3H32.5a3 3 0 0 1-3-3 3 3 0 0 1 3-3z"/><path fill="#1b403d" d="M32.6 25.12h16.8a3 3 0 0 1 3 3 3 3 0 0 1-3 3H32.6a3 3 0 0 1-3-3 3 3 0 0 1 3-3z"/><path fill="#1c5955" d="M32.6 24.82h16.8a3 3 0 0 1 3 3 3 3 0 0 1-3 3H32.6a3 3 0 0 1-3-3 3 3 0 0 1 3-3z"/><path fill="#2a867f" d="M32.6 24.42h16.8a3 3 0 0 1 3 3 3 3 0 0 1-3 3H32.6a3 3 0 0 1-3-3 3 3 0 0 1 3-3z"/><path fill="#fff" d="M32.5 32.82h16.8a3 3 0 0 1 3 3 3 3 0 0 1-3 3H32.5a3 3 0 0 1-3-3 3 3 0 0 1 3-3z"/><path fill="#1b403d" d="M32.6 33.72h16.8a3 3 0 0 1 3 3 3 3 0 0 1-3 3H32.6a3 3 0 0 1-3-3 3 3 0 0 1 3-3z"/><path fill="#1c5955" d="M32.6 33.42h16.8a3 3 0 0 1 3 3 3 3 0 0 1-3 3H32.6a3 3 0 0 1-3-3 3 3 0 0 1 3-3z"/><path fill="#2a867f" d="M32.6 33h16.8a3 3 0 0 1 3 3 3 3 0 0 1-3 3H32.6a3 3 0 0 1-3-3 3 3 0 0 1 3-3z"/><path fill="#fff" d="M32.5 42h16.8a3 3 0 0 1 3 3 3 3 0 0 1-3 3H32.5a3 3 0 0 1-3-3 3 3 0 0 1 3-3z"/><path fill="#1b403d" d="M32.6 42.92h16.8a3 3 0 0 1 3 3 3 3 0 0 1-3 3H32.6a3 3 0 0 1-3-3 3 3 0 0 1 3-3z"/><path fill="#1c5955" d="M32.6 42.62h16.8a3 3 0 0 1 3 3 3 3 0 0 1-3 3H32.6a3 3 0 0 1-3-3 3 3 0 0 1 3-3z"/><path fill="#2a867f" d="M32.6 42.22h16.8a3 3 0 0 1 3 3 3 3 0 0 1-3 3H32.6a3 3 0 0 1-3-3 3 3 0 0 1 3-3z"/></g></g></svg>