<svg width="46" height="65" viewBox="0 0 46 65" fill="none" xmlns="http://www.w3.org/2000/svg">
<path d="M4.16571 59.7793L0 12.774H45.7746L41.6044 59.7719L22.8592 65L4.16571 59.7793Z" fill="#E53D20"/>
<path d="M22.8872 61.0039L38.0342 56.7793L41.5979 16.6174H22.8872V61.0039Z" fill="#F15123"/>
<path d="M22.8875 34.0511H15.3046L14.7808 28.1476H22.8875V22.3825H22.8677H8.51807L8.65528 23.9292L10.0637 39.8159H22.8875V34.0511Z" fill="#EDEDED"/>
<path d="M22.8872 49.0234L22.862 49.0302L16.48 47.2965L16.0718 42.6987H12.9707H10.3193L11.1222 51.7506L22.8608 55.0288L22.8872 55.0215V49.0234Z" fill="#EDEDED"/>
<path d="M4.25879 -0.000203133H7.17102V2.89431H9.8349V-0.000203133H12.7473V8.76514H9.83502V5.83004H7.17114V8.76514H4.259V-0.000203133H4.25879Z" fill="#100F0D"/>
<path d="M16.5769 2.90653H14.0132V-0.000203133H22.0542V2.90653H19.4893V8.76514H16.5771V2.90653H16.5769Z" fill="#100F0D"/>
<path d="M23.3301 -0.000203133H26.3667L28.2346 3.07965L30.1006 -0.000203133H33.1384V8.76514H30.2382V4.42054L28.2346 7.53714H28.1846L26.1796 4.42054V8.76514H23.3301V-0.000203133Z" fill="#100F0D"/>
<path d="M34.5879 -0.000203133H37.501V5.86786H41.5963V8.76514H34.5879V-0.000203133Z" fill="#100F0D"/>
<path d="M22.8677 34.0511V39.8159H29.9241L29.259 47.2927L22.8677 49.0282V55.0259L34.6155 51.7504L34.7016 50.7765L36.0483 35.5991L36.1881 34.0511H34.6439H22.8677Z" fill="white"/>
<path d="M22.8677 22.3824V28.1475H36.6912H36.7095L36.8245 26.8516L37.0856 23.9291L37.2226 22.3824H22.8677Z" fill="white"/>
</svg>
