<svg width="162" height="37" viewBox="0 0 162 37" fill="none" xmlns="http://www.w3.org/2000/svg">
<path fill-rule="evenodd" clip-rule="evenodd" d="M154.373 2.70654L161.139 2.74372C161.139 2.74372 148.56 19.7888 147.533 21.178C147.199 21.6279 146.692 22.113 146.435 22.7144C145.786 24.2262 145.119 27.5424 145.119 27.5424L138.928 27.5731C138.928 27.5731 139.891 24.1166 139.852 22.2754C139.817 20.6668 138.996 19.0605 138.535 17.4473C138.07 15.8146 137.438 12.6192 137.438 12.6192H143.802L144.68 16.1306L154.373 2.70654Z" fill="#1A1918"/>
<path fill-rule="evenodd" clip-rule="evenodd" d="M141.561 6.30137C142.81 7.05421 143.576 11.2063 143.576 11.2063C143.576 11.2063 137.043 11.3026 133.487 11.3026H130.415L126.684 27.5425H120.979C120.979 27.5425 124.529 9.89393 125.368 6.69421C125.64 5.65852 127.229 5.83604 129.912 5.83604H134.198C136.966 5.83604 140.201 5.48286 141.561 6.30137Z" fill="#1A1918"/>
<path fill-rule="evenodd" clip-rule="evenodd" d="M114.998 14.2103C114.998 14.2103 115.176 13.1678 114.395 11.9608C113.728 10.9316 113.111 10.6924 111.355 10.6376C106.398 10.4817 106.494 14.1555 106.494 14.1555L114.998 14.2103ZM120.375 10.0034C121.101 12.6238 119.717 18.7815 119.717 18.7815C119.717 18.7815 112.485 18.6607 108.524 18.7815C107.293 18.819 105.819 18.6477 105.452 19.2205C104.936 20.0236 105.64 21.2594 106.237 21.7814C106.925 22.3828 108.263 22.4509 108.744 22.5123C111.959 22.9206 118.687 22.6176 118.687 22.6176L117.522 27.779C117.522 27.779 108.013 28.2555 103.257 27.1207C102.318 26.897 101.438 26.445 100.843 25.804C100.681 25.6286 100.54 25.3895 100.387 25.1831C100.264 25.0183 99.9064 24.4765 99.7459 24.0483C98.6597 21.1537 99.8733 15.6082 101.063 12.6368C101.201 12.2923 101.374 11.8557 101.557 11.4846C101.785 11.0217 101.978 10.4994 102.16 10.2227C102.283 10.0319 102.434 9.9089 102.562 9.7289C102.709 9.51606 102.88 9.30972 103.038 9.1257C103.477 8.61637 103.975 8.25637 104.574 7.80901C106.556 6.32533 110.142 5.17315 114.45 5.61431C116.071 5.78099 118.521 6.36034 119.717 8.02835C120.037 8.47386 120.195 9.35805 120.375 10.0034Z" fill="#1A1918"/>
<path fill-rule="evenodd" clip-rule="evenodd" d="M94.2048 5.81604L99.7374 5.7832C99.7374 5.7832 96.6542 20.4099 95.0828 27.5424H88.7184C84.2702 27.5424 80.3089 28.0932 78.6236 24.9087C76.9887 21.8168 78.5489 16.7319 79.2819 13.2775C79.7999 10.8328 80.8907 5.83587 80.8907 5.83587L86.6228 5.7832C86.6228 5.7832 85.0032 13.5628 84.3293 17.4472C84.088 18.8386 83.5901 20.1488 84.11 21.178C84.6038 22.157 85.295 22.227 87.4017 22.2753C88.069 22.2908 90.2547 22.2753 90.2547 22.2753L94.2048 5.81604Z" fill="#1A1918"/>
<path fill-rule="evenodd" clip-rule="evenodd" d="M68.3092 16.3499C68.8885 14.2915 69.7334 12.0596 69.6259 10.2051C69.5097 8.22139 67.8463 6.4152 66.7731 6.03568C63.5406 4.89434 60.5144 6.48986 59.3117 7.79106C57.7555 9.47674 57.2288 11.4453 56.678 14.1555C56.2678 16.1677 55.932 18.2921 56.678 19.8612C57.999 22.6353 62.1182 22.0296 66.5535 22.0559C67.2118 20.2916 67.7562 18.3097 68.3092 16.3499ZM75.9903 8.23006C76.6223 12.8255 74.1974 17.8974 72.5272 22.3081C74.2303 22.4618 75.7226 22.2843 75.8301 22.4113C75.942 22.5761 74.6888 27.6762 74.2519 27.6892C72.9002 27.7245 68.4213 27.7617 66.5535 27.7617C60.4592 27.7617 54.7578 28.1589 51.8502 25.1283C50.6695 23.8971 49.8532 21.7858 49.6555 20.3002C49.3262 17.8202 49.7389 15.0902 50.3139 12.8388C50.8341 10.8064 51.5011 8.88841 52.5086 7.13272C55.0695 2.66247 59.5245 -0.655588 66.9925 0.110262C68.4408 0.25959 70.5212 0.89377 71.8206 1.6463C71.9104 1.69928 72.2245 1.94929 72.2967 1.99328C74.0524 3.11046 75.6523 5.77668 75.9903 8.23006Z" fill="#1A1918"/>
<path fill-rule="evenodd" clip-rule="evenodd" d="M49.0255 5.84274C48.6568 7.5216 48.2881 9.42445 47.8996 11.0835H41.7549C42.2311 9.24445 42.5954 7.41626 43.0716 5.81641C45.0379 5.81641 46.8661 5.84274 49.0255 5.84274Z" fill="#1A1918"/>
<path fill-rule="evenodd" clip-rule="evenodd" d="M41.5355 12.6191H47.4606C46.686 16.9075 45.1522 23.8246 43.9495 28.6394C43.1967 31.6526 42.6941 33.8516 40.6575 35.4425C40.4753 35.5853 40.3703 35.5175 40.2188 35.6622C39.8433 36.02 38.1074 36.4348 37.1464 36.5399C35.5837 36.709 33.8172 36.5618 31.897 36.5225C32.3995 34.6856 32.968 32.4801 33.4157 30.8341C38.0966 31.4004 38.2152 26.976 39.1214 22.7143C39.6459 20.2519 41.2349 13.6068 41.5355 12.6191Z" fill="#1A1918"/>
<path fill-rule="evenodd" clip-rule="evenodd" d="M27.7097 23.8121L27.5827 24.1411C25.4187 28.3545 21.5848 30.9399 16.116 31.0539C13.5595 31.1066 11.1235 30.4507 9.53227 29.7372C6.09803 28.1943 3.20967 25.3329 1.63212 22.2757C-0.630726 17.8932 -1.03875 11.7967 3.66633 7.24316C3.73883 7.24316 3.09566 8.23053 3.16816 8.23053L3.03866 8.65187C-0.351897 19.2669 10.094 28.3635 20.2483 27.3232C22.6886 27.0731 25.8007 25.7366 27.7097 23.8121Z" fill="#21609B"/>
<path fill-rule="evenodd" clip-rule="evenodd" d="M21.565 19.4226C24.1196 19.4402 26.788 18.2462 28.3681 16.5698C26.9857 20.079 22.983 22.3348 17.6149 21.6173C13.1205 21.0159 8.8389 16.493 8.39774 11.9611C8.07522 8.66287 9.22493 6.69434 11.1191 4.30664C10.4608 5.55548 10.2148 6.51868 10.1534 7.13303C9.43374 14.2676 15.8527 19.3854 21.565 19.4226Z" fill="#21609B"/>
<path fill-rule="evenodd" clip-rule="evenodd" d="M28.1118 10.561C27.7146 11.4718 25.4279 13.1922 24.4183 13.4072C20.4199 14.2589 17.859 12.3628 16.5178 10.2053C16.3183 9.88281 15.9496 9.00295 15.8836 8.77895C15.3635 7.01025 15.6026 4.33504 17.1545 2.9502C16.687 4.26689 16.6188 5.79642 16.8648 6.7906C17.0138 7.39194 17.468 8.44126 17.9225 9.10147C18.7497 10.3041 19.2742 10.5963 20.3365 11.2348C20.8149 11.5223 21.3282 11.7528 21.55 11.8163C22.5572 12.1125 24.6838 12.8938 28.1118 10.561Z" fill="#21609B"/>
</svg>
