<svg xmlns="http://www.w3.org/2000/svg" xmlns:xlink="http://www.w3.org/1999/xlink" viewBox="0 0 64 64"><defs><linearGradient id="a" x1="32" x2="32" y1="63.323" y2="-1.327" gradientUnits="userSpaceOnUse"><stop offset="0" stop-color="#e93e3a"/><stop offset=".35" stop-color="#ed683c"/><stop offset=".7" stop-color="#f3903f"/><stop offset="1" stop-color="#fdc70c"/></linearGradient><linearGradient id="b" x1="55" x2="55" y1="63.323" y2="-1.327" xlink:href="#a"/><linearGradient id="c" x1="32.667" x2="32.667" y1="63.323" y2="-1.327" xlink:href="#a"/><linearGradient id="d" x1="49" x2="49" y1="63.323" y2="-1.327" xlink:href="#a"/><linearGradient id="e" x1="44" x2="44" y1="63.323" y2="-1.327" xlink:href="#a"/><linearGradient id="f" x1="52" x2="52" y1="63.323" y2="-1.327" xlink:href="#a"/><linearGradient id="g" x1="15" x2="15" y1="63.323" y2="-1.327" xlink:href="#a"/><linearGradient id="h" x1="10" x2="10" y1="63.323" y2="-1.327" xlink:href="#a"/><linearGradient id="i" x1="18" x2="18" y1="63.323" y2="-1.327" xlink:href="#a"/></defs><path fill="url(#a)" d="M55,2H9A7.008,7.008,0,0,0,2,9V43a7.008,7.008,0,0,0,7,7H22.867l-.75,6H19a3,3,0,0,0,0,6H45a3,3,0,0,0,0-6H41.883l-.75-6H55a7.008,7.008,0,0,0,7-7V9A7.008,7.008,0,0,0,55,2ZM9,4H55a5.006,5.006,0,0,1,5,5V40H4V9A5.006,5.006,0,0,1,9,4ZM46,59a1,1,0,0,1-1,1H19a1,1,0,0,1,0-2H45A1,1,0,0,1,46,59Zm-6.133-3H24.133l.75-6H39.117ZM55,48H9a5.006,5.006,0,0,1-5-5V42H60v1A5.006,5.006,0,0,1,55,48Z"/><rect width="2" height="2" x="54" y="44" fill="url(#b)"/><path fill="url(#c)" d="M21.2,29.557l-1.907,1.907a3,3,0,0,0,4.243,4.243L25.443,33.8l3.239-.648a1,1,0,0,0,.51-.274L45.456,16.615a5,5,0,1,0-7.071-7.071L22.122,25.808a1,1,0,0,0-.274.51Zm.922,4.736a1,1,0,0,1-1.415-1.415l1.414-1.414,1.415,1.415Zm1.557-6.928,3.956,3.956-2.357.472-2.071-2.071ZM39.8,19.444,29.192,30.05l-1.414-1.414,9.193-9.193-1.414-1.414-9.193,9.193L24.95,25.808,35.557,15.2Zm-2.828-5.657.707-.707,4.243,4.242-.708.708Zm7.071-2.829a3.005,3.005,0,0,1,0,4.243l-.707.707-4.243-4.242.707-.708A3,3,0,0,1,44.042,10.958Z"/><rect width="14" height="2" x="42" y="34" fill="url(#d)"/><rect width="14" height="2" x="42" y="30" fill="url(#d)"/><rect width="4" height="2" x="42" y="26" fill="url(#e)"/><rect width="8" height="2" x="48" y="26" fill="url(#f)"/><rect width="14" height="2" x="8" y="16" fill="url(#g)"/><rect width="14" height="2" x="8" y="12" fill="url(#g)"/><rect width="4" height="2" x="8" y="8" fill="url(#h)"/><rect width="8" height="2" x="14" y="8" fill="url(#i)"/></svg>