<svg width="60" height="60" viewBox="0 0 60 60" fill="none" xmlns="http://www.w3.org/2000/svg">
<circle cx="30" cy="30" r="30" fill="#2C2C2C"/>
<circle cx="30" cy="30" r="22" fill="#7A66CC"/>
<g clip-path="url(#clip0_601_184)">
<path d="M25.0779 40.551C24.6049 40.235 24.1849 39.848 23.8339 39.401C23.4509 38.938 23.0959 38.451 22.7699 37.947C22.0039 36.827 21.4049 35.602 20.9899 34.311C20.4899 32.809 20.2469 31.371 20.2469 29.964C20.2469 28.394 20.5869 27.024 21.2489 25.874C21.7389 24.974 22.4689 24.221 23.3489 23.692C24.1989 23.162 25.1889 22.872 26.1889 22.852C26.5389 22.852 26.9189 22.902 27.3189 23.002C27.6089 23.082 27.9589 23.212 28.3889 23.372C28.9389 23.582 29.2389 23.712 29.3389 23.742C29.6589 23.862 29.9289 23.912 30.1389 23.912C30.2989 23.912 30.5289 23.862 30.7839 23.782C30.9289 23.732 31.2039 23.642 31.5939 23.472C31.9799 23.332 32.2859 23.212 32.5289 23.122C32.8989 23.012 33.2569 22.912 33.5789 22.862C33.9689 22.802 34.3559 22.782 34.7269 22.812C35.4369 22.862 36.0869 23.012 36.6669 23.232C37.6869 23.642 38.5099 24.282 39.1239 25.192C38.8639 25.352 38.6239 25.538 38.3989 25.742C37.9119 26.172 37.4989 26.682 37.1689 27.247C36.7389 28.017 36.5189 28.887 36.5249 29.767C36.5399 30.85 36.8149 31.802 37.3649 32.627C37.7519 33.227 38.2689 33.741 38.8989 34.163C39.2089 34.373 39.4809 34.518 39.7389 34.613C39.6189 34.988 39.4869 35.353 39.3339 35.713C38.9869 36.52 38.5739 37.293 38.0839 38.023C37.6519 38.653 37.3119 39.123 37.0539 39.433C36.6519 39.913 36.2639 40.273 35.8739 40.53C35.4439 40.815 34.9389 40.966 34.4219 40.966C34.0719 40.981 33.7219 40.936 33.3879 40.839C33.0979 40.744 32.8119 40.637 32.5319 40.516C32.2389 40.382 31.9359 40.268 31.6269 40.176C31.2469 40.076 30.8569 40.028 30.4629 40.029C30.0629 40.029 29.6729 40.079 29.3029 40.174C28.9929 40.262 28.6929 40.37 28.3959 40.499C27.9759 40.674 27.7009 40.789 27.5409 40.839C27.2169 40.935 26.8849 40.993 26.5509 41.014C26.0309 41.014 25.5469 40.864 25.0649 40.564L25.0779 40.551ZM31.9319 22.091C31.2519 22.431 30.6059 22.575 29.9589 22.527C29.8589 21.881 29.9589 21.217 30.2289 20.49C30.4689 19.87 30.7889 19.31 31.2289 18.81C31.6889 18.29 32.2389 17.86 32.8589 17.55C33.5189 17.21 34.1489 17.03 34.7489 17C34.8289 17.68 34.7489 18.35 34.4989 19.07C34.2709 19.71 33.9309 20.3 33.4989 20.83C33.0639 21.35 32.5239 21.78 31.9129 22.09L31.9319 22.091Z" fill="white"/>
</g>
<defs>
<clipPath id="clip0_601_184">
<rect width="24" height="24" fill="white" transform="translate(18 17)"/>
</clipPath>
</defs>
</svg>
