<svg width="60" height="60" viewBox="0 0 60 60" fill="none" xmlns="http://www.w3.org/2000/svg">
<circle cx="30" cy="30" r="30" fill="#2C2C2C"/>
<circle cx="30" cy="30" r="22" fill="#7A66CC"/>
<g clip-path="url(#clip0_601_199)">
<path d="M41.954 22.5652C41.069 22.9542 40.124 23.2192 39.129 23.3402C40.143 22.7292 40.923 21.7662 41.292 20.6172C40.341 21.1722 39.287 21.5762 38.165 21.8012C37.269 20.8422 35.992 20.2422 34.574 20.2422C31.857 20.2422 29.654 22.4452 29.654 25.1592C29.654 25.5492 29.699 25.9242 29.781 26.2832C25.691 26.0902 22.066 24.1262 19.64 21.1572C19.213 21.8792 18.974 22.7182 18.974 23.6322C18.974 25.3422 19.844 26.8452 21.162 27.7282C20.355 27.7022 19.596 27.4802 18.934 27.1122V27.1732C18.934 29.5582 20.627 31.5472 22.88 32.0002C22.467 32.1112 22.031 32.1712 21.584 32.1712C21.27 32.1712 20.969 32.1412 20.668 32.0852C21.299 34.0382 23.113 35.4622 25.272 35.5022C23.592 36.8212 21.463 37.6072 19.17 37.6072C18.78 37.6072 18.391 37.5842 18 37.5402C20.189 38.9342 22.768 39.7492 25.557 39.7492C34.611 39.7492 39.556 32.2532 39.556 25.7632C39.556 25.5542 39.556 25.3432 39.541 25.1332C40.502 24.4442 41.341 23.5732 42.001 22.5852L41.954 22.5652Z" fill="white"/>
</g>
<defs>
<clipPath id="clip0_601_199">
<rect width="24" height="24" fill="white" transform="translate(18 18)"/>
</clipPath>
</defs>
</svg>
