<svg width="60" height="60" viewBox="0 0 60 60" fill="none" xmlns="http://www.w3.org/2000/svg">
<circle cx="30" cy="30" r="30" fill="#2C2C2C"/>
<circle cx="30" cy="30" r="22" fill="#7A66CC"/>
<g clip-path="url(#clip0_601_194)">
<path d="M41.499 24.1994C41.3599 23.7009 41.0946 23.2467 40.7286 22.8808C40.3627 22.5148 39.9085 22.2495 39.41 22.1104C37.54 21.6094 30.01 21.6094 30.01 21.6094C30.01 21.6094 22.501 21.5994 20.611 22.1104C20.1126 22.2497 19.6585 22.5153 19.2928 22.8814C18.927 23.2475 18.6619 23.7018 18.523 24.2004C18.1682 26.1152 17.9931 28.059 18 30.0064C17.9944 31.9468 18.1695 33.8835 18.523 35.7914C18.662 36.2898 18.9272 36.7439 19.293 37.1098C19.6587 37.4758 20.1127 37.7412 20.611 37.8804C22.48 38.3824 30.011 38.3824 30.011 38.3824C30.011 38.3824 37.519 38.3824 39.41 37.8804C39.9086 37.7412 40.3629 37.4757 40.7288 37.1096C41.0948 36.7435 41.3601 36.2891 41.499 35.7904C41.8447 33.8821 42.0121 31.9457 41.999 30.0064C42.0136 28.059 41.8462 26.1146 41.499 24.1984V24.1994ZM27.608 33.5994V26.4034L33.874 30.0074L27.608 33.5994Z" fill="white"/>
</g>
<defs>
<clipPath id="clip0_601_194">
<rect width="24" height="24" fill="white" transform="translate(18 18)"/>
</clipPath>
</defs>
</svg>
