<?xml version="1.0" encoding="UTF-8"?>
<!DOCTYPE svg PUBLIC "-//W3C//DTD SVG 1.1//EN" "http://www.w3.org/Graphics/SVG/1.1/DTD/svg11.dtd">
<!-- Creator: CorelDRAW 2021 (64-Bit) -->
<svg xmlns="http://www.w3.org/2000/svg" xml:space="preserve" width="60" height="50" version="1.1" style="shape-rendering:geometricPrecision; text-rendering:geometricPrecision; image-rendering:optimizeQuality; fill-rule:evenodd; clip-rule:evenodd"
viewBox="0 0 21000 29700"
 xmlns:xlink="http://www.w3.org/1999/xlink"
 xmlns:xodm="http://www.corel.com/coreldraw/odm/2003">
 <defs>
  <style type="text/css">
   <![CDATA[
    .fil1 {fill:#FEFEFE;fill-rule:nonzero}
    .fil0 {fill:#FF9900;fill-rule:nonzero}
   ]]>
  </style>
 </defs>
 <g id="Слой_x0020_1">
  <metadata id="CorelCorpID_0Corel-Layer"/>
  <path class="fil0" d="M9596.71 8751.16l0 1046.65 -3304.52 0 0 -4390.66 3304.52 0 0 1013.74 -1981.39 0 0 638.51 1362.68 0 0 974.25 -1362.68 0 0 717.51 1981.39 0zm75.69 -229.29l1250.71 -224.91c105.31,355.45 374.12,533.19 809.67,533.19 337.91,0 506.86,-89.96 506.86,-269.88 0,-94.36 -39.5,-167.88 -117.4,-219.43 -77.87,-52.67 -217.23,-99.84 -419.08,-139.33 -767.99,-147.01 -1261.68,-340.12 -1480.02,-577.08 -218.32,-238.08 -326.92,-517.86 -326.92,-839.3 0,-413.61 156.88,-758.11 470.66,-1032.39 313.77,-274.28 764.67,-411.41 1353.84,-411.41 893.03,0 1482.2,358.76 1769.65,1077.36l-1112.49 337.91c-116.28,-294.01 -351.07,-441.04 -704.36,-441.04 -294.01,0 -441.02,91.07 -441.02,273.19 0,81.19 32.91,144.82 99.84,189.79 65.81,44.99 194.18,86.69 385.08,127.27 525.51,108.63 898.53,205.17 1119.06,289.63 220.52,83.4 404.84,229.31 551.85,437.75 147,207.38 220.52,452.02 220.52,733.97 0,444.34 -179.94,805.28 -539.79,1081.77 -359.86,276.48 -832.72,414.69 -1417.48,414.69 -1068.59,0 -1729.04,-447.6 -1979.18,-1341.75z"/>
  <path class="fil1" d="M8213.57 9502.66l-157.26 86.55c-29.56,-30.97 -58.65,-52.26 -87.5,-64.32 -28.85,-12.06 -62.67,-17.97 -101.45,-17.97 -70.71,0 -127.94,21.04 -171.46,62.9 -43.75,42.1 -65.5,95.78 -65.5,161.52 0,63.85 21.05,115.88 62.9,156.32 42.1,40.44 97.2,60.54 165.54,60.54 84.43,0 150.17,-28.85 197.47,-86.55l148.75 102.16c-80.88,105 -194.87,157.5 -342.2,157.5 -132.67,0 -236.48,-39.26 -311.45,-117.54 -74.96,-78.27 -112.56,-169.79 -112.56,-274.79 0,-72.84 18.2,-139.77 54.62,-201.02 36.66,-61.24 87.5,-109.49 153.01,-144.49 65.27,-35 138.34,-52.5 219.22,-52.5 74.97,0 142.13,14.9 201.72,44.7 59.6,29.8 108.31,72.13 146.15,126.99zm525 -171.69c71.18,0 138.11,17.74 200.77,53.21 62.91,35.47 111.62,83.48 146.86,144.26 35.24,61.01 52.74,126.52 52.74,196.99 0,70.95 -17.74,137.16 -52.98,198.88 -35.47,61.73 -83.71,109.97 -144.72,144.73 -61.25,34.77 -128.42,52.27 -201.96,52.27 -108.31,0 -200.78,-38.31 -277.16,-114.94 -76.62,-76.85 -114.93,-170.03 -114.93,-279.52 0,-117.53 43.27,-215.44 129.83,-293.72 75.91,-68.1 162.93,-102.16 261.55,-102.16zm2.84 177.37c-58.89,0 -107.84,20.33 -146.86,61.01 -39.02,40.91 -58.65,92.94 -58.65,156.55 0,65.27 19.39,118.25 57.94,158.68 38.55,40.44 87.5,60.78 146.86,60.78 59.12,0 108.31,-20.57 147.8,-61.49 39.26,-40.91 58.88,-93.64 58.88,-157.97 0,-64.56 -19.39,-116.82 -57.93,-157.26 -38.55,-40.2 -87.98,-60.3 -148.04,-60.3zm549.59 -158.92l188.71 0 0 87.97c32.4,-35.71 68.35,-62.43 108.08,-79.93 39.49,-17.74 82.77,-26.49 129.59,-26.49 47.06,0 89.86,11.59 127.7,34.77 38.08,23.17 68.58,57.23 91.76,101.68 30.03,-44.45 66.92,-78.51 110.67,-101.68 43.75,-23.18 91.76,-34.77 143.55,-34.77 53.68,0 100.98,12.54 141.65,37.37 40.92,24.83 70,57.46 87.98,97.43 17.73,40.2 26.72,105.47 26.72,195.81l0 441.28 -188.72 0 0 -380.74c0,-85.14 -10.64,-142.84 -32.16,-172.87 -21.52,-30.03 -53.92,-45.17 -96.72,-45.17 -32.87,0 -62.2,9.22 -87.97,27.67 -26.02,18.21 -45.41,43.75 -57.94,76.15 -12.53,32.4 -18.92,84.42 -18.92,156.31l0 338.65 -188.71 0 0 -363.48c0,-67.16 -4.97,-115.88 -15.14,-145.91 -9.93,-30.27 -25.07,-52.5 -44.93,-67.4 -20.1,-14.66 -44.46,-21.99 -72.84,-21.99 -31.69,0 -60.54,9.22 -86.32,27.91 -26.01,18.68 -45.16,44.69 -58.17,78.27 -12.77,33.58 -19.16,86.56 -19.16,158.68l0 333.92 -188.71 0 0 -753.44zm1523.91 0l0 82.77c34.06,-33.58 70.95,-59.12 110.68,-75.91 39.73,-16.79 82.29,-25.31 127.46,-25.31 98.14,0 181.62,37.13 250.44,111.15 68.82,74.26 103.11,169.32 103.11,285.44 0,111.86 -35.48,205.5 -106.66,280.71 -70.94,75.43 -155.13,113.04 -252.56,113.04 -43.28,0 -83.72,-7.81 -121.08,-23.18 -37.37,-15.37 -74.5,-40.68 -111.39,-75.91l0 355.91 -188.71 0 0 -1028.71 188.71 0zm198.18 154.66c-59.36,0 -108.79,20.34 -147.81,60.78 -39.25,40.67 -58.88,93.64 -58.88,159.15 0,66.93 19.63,121.08 58.88,162.23 39.02,41.38 88.45,61.96 147.81,61.96 57.7,0 106.18,-21.05 145.67,-62.91 39.49,-42.09 59.12,-95.54 59.12,-160.57 0,-64.56 -19.39,-117.53 -58.17,-158.68 -38.55,-41.39 -87.5,-61.96 -146.62,-61.96zm904.32 -173.11c71.18,0 138.11,17.74 200.77,53.21 62.91,35.47 111.62,83.48 146.86,144.26 35.24,61.01 52.74,126.52 52.74,196.99 0,70.95 -17.74,137.16 -52.98,198.88 -35.47,61.73 -83.71,109.97 -144.72,144.73 -61.25,34.77 -128.42,52.27 -201.96,52.27 -108.31,0 -200.78,-38.31 -277.16,-114.94 -76.62,-76.85 -114.93,-170.03 -114.93,-279.52 0,-117.53 43.27,-215.44 129.83,-293.72 75.91,-68.1 162.93,-102.16 261.55,-102.16zm2.84 177.37c-58.89,0 -107.84,20.33 -146.86,61.01 -39.02,40.91 -58.65,92.94 -58.65,156.55 0,65.27 19.39,118.25 57.94,158.68 38.55,40.44 87.5,60.78 146.86,60.78 59.12,0 108.31,-20.57 147.8,-61.49 39.26,-40.91 58.88,-93.64 58.88,-157.97 0,-64.56 -19.39,-116.82 -57.93,-157.26 -38.55,-40.2 -87.98,-60.3 -148.04,-60.3zm1012.15 -52.27l-116.82 117.54c-47.3,-47.3 -90.34,-70.95 -129.12,-70.95 -21.05,0 -37.6,4.49 -49.66,13.48 -12.06,8.99 -17.98,20.1 -17.98,33.35 0,10.16 3.79,19.39 11.35,27.9 7.57,8.51 26.49,20.1 56.52,35l69.06 34.53c72.84,35.71 122.97,72.36 150.17,109.49 27.19,37.36 40.67,80.88 40.67,131.01 0,66.69 -24.59,122.5 -73.78,166.96 -49.19,44.7 -115.17,66.93 -197.94,66.93 -109.73,0 -197.7,-42.81 -263.21,-128.65l116.59 -126.76c22.23,25.78 48.24,46.83 78.28,62.67 29.79,15.85 56.28,23.89 79.46,23.89 24.83,0 45.16,-5.92 60.3,-17.98 15.37,-12.06 22.94,-25.77 22.94,-41.38 0,-29.09 -27.43,-57.47 -82.54,-84.9l-63.61 -31.93c-122.03,-61.25 -183.04,-137.87 -183.04,-229.86 0,-59.36 22.94,-110.2 68.82,-152.3 45.88,-42.09 104.52,-63.14 175.94,-63.14 48.96,0 94.83,10.88 138.11,32.4 43.04,21.52 79.46,52.5 109.49,92.7zm238.14 -415.97c33.11,0 61.49,12.06 85.14,35.94 23.88,23.89 35.71,52.74 35.71,86.79 0,33.58 -11.83,62.2 -35.24,85.85 -23.41,23.64 -51.55,35.47 -84.42,35.47 -33.59,0 -62.2,-12.06 -85.85,-36.18 -23.88,-24.12 -35.71,-53.45 -35.71,-87.98 0,-33.1 11.83,-61.25 35.24,-84.66 23.41,-23.41 51.79,-35.23 85.13,-35.23zm-94.83 309.32l188.72 0 0 753.44 -188.72 0 0 -753.44zm382.64 -278.11l188.71 0 0 278.11 112.1 0 0 163.17 -112.1 0 0 590.27 -188.71 0 0 -590.27 -96.49 0 0 -163.17 96.49 0 0 -278.11zm1156.89 708.04l-606.59 0c8.75,53.68 32.17,96.48 70,128.41 37.84,31.69 86.32,47.53 144.97,47.53 70.47,0 130.77,-24.83 181.38,-74.49l158.45 74.97c-39.5,56.28 -87.03,97.9 -142.13,125.1 -55.34,26.96 -120.84,40.44 -196.76,40.44 -117.77,0 -213.78,-37.13 -287.8,-111.63 -74.02,-74.25 -111.15,-167.43 -111.15,-279.28 0,-114.7 37.13,-210 111.15,-285.68 74.02,-75.91 166.72,-113.75 278.58,-113.75 118.48,0 214.97,37.84 289.22,113.28 74.26,75.67 111.39,175.23 111.39,299.39l-0.71 35.71zm-188.01 -147.57c-12.53,-41.15 -37.13,-74.73 -73.78,-100.5 -36.89,-25.78 -79.46,-38.55 -128.18,-38.55 -52.73,0 -98.85,14.42 -138.81,43.51 -24.83,17.97 -48.01,49.9 -69.29,95.54l410.06 0z"/>
 </g>
</svg>
