<svg width="65" height="65" viewBox="0 0 65 65" fill="none" xmlns="http://www.w3.org/2000/svg">
<path d="M0 0H65V65H0V0Z" fill="#F7DF1E"/>
<path d="M17.0909 54.3188L22.0652 51.3084C23.0248 53.0099 23.8978 54.4495 25.9917 54.4495C27.9989 54.4495 29.2643 53.6643 29.2643 50.6104V29.8413H35.3726V50.6967C35.3726 57.0234 31.6641 59.9031 26.2536 59.9031C21.3671 59.9031 18.5306 57.3723 17.0908 54.3183" fill="black"/>
<path d="M38.6904 53.6643L43.6641 50.7846C44.9734 52.9228 46.675 54.4935 49.6854 54.4935C52.2164 54.4935 53.8304 53.228 53.8304 51.4827C53.8304 49.3884 52.1725 48.6466 49.3799 47.4253L47.8533 46.7703C43.4462 44.8945 40.5227 42.5384 40.5227 37.5643C40.5227 32.9829 44.0132 29.4922 49.4674 29.4922C53.3507 29.4922 56.1431 30.8449 58.15 34.3792L53.3941 37.4332C52.3468 35.5572 51.2127 34.8156 49.4675 34.8156C47.6786 34.8156 46.5441 35.95 46.5441 37.4332C46.5441 39.2658 47.6786 40.0077 50.2962 41.1422L51.8232 41.7967C57.0155 44.0221 59.9389 46.2907 59.9389 51.3954C59.9389 56.8934 55.6194 59.9037 49.8165 59.9037C44.1443 59.9037 40.4792 57.1987 38.6905 53.6643" fill="black"/>
</svg>
