<svg xmlns="http://www.w3.org/2000/svg" viewBox="0 0 64 64"><g data-name="27. Working"><circle cx="27" cy="11" r="7" fill="#b7dbf9"/><path fill="#88b8f9" d="M43.07,32.61l0-.08-7.51-11.2-.13-.18a3.08,3.08,0,0,0-1.37-1A3.31,3.31,0,0,0,33,20H20v.2a3.06,3.06,0,0,0-1.42,1.13L11,32.53l-.05.08A2.44,2.44,0,0,0,10.5,34,2.5,2.5,0,0,0,13,36.5h6.34l-.21,5.13L15.9,44.48l-.12.11a3.17,3.17,0,0,0-1,3.1l3.28,13.94a3,3,0,0,0,5.86-1.26l-2.33-12L25.85,45h2.3l4.25,3.34-2.33,12a3,3,0,0,0,5.86,1.26l3.28-13.94a3.21,3.21,0,0,0-1-3.11l-.12-.1-3.23-2.85L34.7,37.5H31a3.5,3.5,0,0,1,0-7h3.42l0-.88,1.47,1.88H31a2.5,2.5,0,0,0,0,5H41a2.45,2.45,0,0,0,1.39-.43A2.49,2.49,0,0,0,43.07,32.61ZM18.14,31.5l1.47-1.85-.07,1.85Z"/><rect width="20" height="16" x="1" y="16" fill="#2f79f0" rx="2"/><rect width="50" height="4" x="1" y="36" fill="#2f79f0" rx="1"/><polygon fill="#0c3798" points="11 64 7 64 6 44 12 44 11 64"/><polygon fill="#0c3798" points="45 64 41 64 40 44 46 44 45 64"/><path fill="#0c3798" d="M2,40H50a0,0,0,0,1,0,0v6a2,2,0,0,1-2,2H4a2,2,0,0,1-2-2V40A0,0,0,0,1,2,40Z"/><circle cx="11" cy="24" r="2" fill="#fffeff"/><rect width="18" height="2" x="18" y="34" fill="#f8cf6d"/><path fill="#b7dbf9" d="M14,34H8l.81-3.24a1,1,0,0,1,1-.76h2.44a1,1,0,0,1,1,.76Z"/><rect width="10" height="2" x="6" y="34" fill="#0c3798"/><path fill="#f8cf6d" d="M51.07,5.93h0a.93.93,0,0,1-.66-1.59h0a.91.91,0,0,0,0-1.31L48.9,1.51a.93.93,0,0,0-1.31,0h0A.93.93,0,0,1,46,.86h0a.93.93,0,0,0-.93-.93H42.93A.93.93,0,0,0,42,.86h0a.93.93,0,0,1-1.59.65h0a.93.93,0,0,0-1.31,0L37.59,3a.91.91,0,0,0,0,1.31h0a.93.93,0,0,1-.66,1.59h0a.93.93,0,0,0-.93.93V9a.93.93,0,0,0,.93.93h0a.93.93,0,0,1,.66,1.58h0a.92.92,0,0,0,0,1.32l1.51,1.51a.91.91,0,0,0,1.31,0h0A.93.93,0,0,1,42,15h0a.93.93,0,0,0,.93.93h2.14A.93.93,0,0,0,46,15h0a.93.93,0,0,1,1.59-.66h0a.91.91,0,0,0,1.31,0l1.51-1.51a.92.92,0,0,0,0-1.32h0a.93.93,0,0,1,.66-1.58h0A.93.93,0,0,0,52,9V6.86A.93.93,0,0,0,51.07,5.93Z"/><circle cx="44" cy="7.93" r="3" fill="#fffeff"/><path fill="#ee7231" d="M63,25V23a1,1,0,0,0-1-1h-.57a1,1,0,0,1-1-.67v0a1,1,0,0,1,.2-1.14l.4-.41a1,1,0,0,0,0-1.42l-1.4-1.4a1,1,0,0,0-1.42,0l-.41.4a1,1,0,0,1-1.14.2h0a1,1,0,0,1-.67-1V16a1,1,0,0,0-1-1H53a1,1,0,0,0-1,1v.57a1,1,0,0,1-.67,1h0a1,1,0,0,1-1.14-.2l-.41-.4a1,1,0,0,0-1.42,0l-1.4,1.4a1,1,0,0,0,0,1.42l.4.41a1,1,0,0,1,.2,1.14v0a1,1,0,0,1-1,.67H46a1,1,0,0,0-1,1v2a1,1,0,0,0,1,1h.57a1,1,0,0,1,1,.67v0a1,1,0,0,1-.2,1.14l-.4.41a1,1,0,0,0,0,1.42l1.4,1.4a1,1,0,0,0,1.42,0l.41-.4a1,1,0,0,1,1.14-.2h0a1,1,0,0,1,.67,1V32a1,1,0,0,0,1,1h2a1,1,0,0,0,1-1v-.57a1,1,0,0,1,.67-1h0a1,1,0,0,1,1.14.2l.41.4a1,1,0,0,0,1.42,0l1.4-1.4a1,1,0,0,0,0-1.42l-.4-.41a1,1,0,0,1-.2-1.14v0a1,1,0,0,1,1-.67H62A1,1,0,0,0,63,25Z"/><circle cx="54" cy="24" r="4" fill="#fffeff"/></g></svg>